<svg width="212" height="268" viewBox="0 0 212 268" version="1" xmlns="http://www.w3.org/2000/svg">
	<style>
		text {
			font: 30px "Inter";
		}
	</style>
	<defs>
		<linearGradient id="gradient1">
			<stop offset="40%" stop-color="#4242d4"/>
			<stop offset="75%" stop-color="#4242d4" stop-opacity="0"/>
		</linearGradient>
		<linearGradient id="gradient2">
			<stop offset="80%" stop-color="#4242d4"/>
			<stop offset="100%" stop-color="#4242d4" stop-opacity="0"/>
		</linearGradient>
		<linearGradient id="gradient3">
			<stop offset="3%" stop-color="#4242d4" stop-opacity="0"/>
			<stop offset="30%" stop-color="#4242d4"/>
		</linearGradient>
	</defs>
	<path d="M30,20 h92 l70 70 v148 a10,10 0 0 1 -10,10 h-152 a10,10 0 0 1 -10,-10 v-208 a10,10 0 0 1 10,-10 z" fill="#F5F5F5" style="filter: drop-shadow(0px 4px 3px rgba(0, 0, 0, 0.3));"/>
	<path d="M57,143 l63,-63" stroke-width="3px" stroke="url(#gradient1)"/>
	<path d="M71,148 l68,-68" stroke-width="3px" stroke="url(#gradient2)"/>
	<path d="M155,120 l-40,-40" stroke-width="3px" stroke="url(#gradient3)"/>
	<path d="M92,128 l-35,-35" stroke-width="3px" stroke="url(#gradient3)"/>
	<circle cx="75" cy="102" r="11" fill="none" stroke-width="3px" stroke="#4242d4"/>
	<path d="M57,145 l25,-25 l10,9 l35,-35 l28,27 v23 l-7,7 h-86" fill="#7C7"/>
	<circle cx="75" cy="102" r="10" fill="#DD1"/>
	<path d="M65,80 h80 a10,10 0 0 1 10,10 v50 a10,10 0 0 1 -10,10 h-80 a10,10 0 0 1 -10,-10 v-50 a10,10 0 0 1 10,-10" fill="none" stroke-width="3px" stroke="#CCC"/>
	<path d="M122,20 l70 70 h-60 a10,10 0 0 1 -10,-10" fill="#EFEFEF" style="filter: drop-shadow(-4px 4px 12px rgba(0, 0, 0, 0.3));"/>
	<path d="M20,198 h172 v40 a10,10 0 0 1 -10,10 h-152 a10,10 0 0 1 -10,-10" fill="#DDD"/>
	<text x="106" y="232" text-anchor="middle">SVG</text>
</svg>
