<svg width="212" height="268" viewBox="0 0 212 268" version="1" xmlns="http://www.w3.org/2000/svg">
	<style>
		text {
			font: 30px "Inter";
		}

		.small {
			font-size: 10px;
		}
	</style>
	<path d="M30,20 h92 l70 70 v148 a10,10 0 0 1 -10,10 h-152 a10,10 0 0 1 -10,-10 v-208 a10,10 0 0 1 10,-10 z" fill="#F5F5F5" style="filter: drop-shadow(0px 4px 3px rgba(0, 0, 0, 0.3));"/>
	<path d="M115,77 h2 a3,3 0 0 1 3,3 a3,3 0 0 1 -3,3 h-2 a3,3 0 0 1 -3,-3 a3,3 0 0 1 3,-3" fill="#666"/>
	<path d="M133,77 h7 a3,3 0 0 1 3,3 a3,3 0 0 1 -3,3 h-7 a3,3 0 0 1 -3,-3 a3,3 0 0 1 3,-3" fill="#666"/>
  <path d="M72,77 h25 a5,5 0 0 1 5,5 v22 a5,5 0 0 1 -5,5 h-25 a5,5 0 0 1 -5,-5 v-22 a5,5 0 0 1 5,-5" fill="#666"/>
	<path d="M115,90 h25 a3,3 0 0 1 3,3 a3,3 0 0 1 -3,3 h-25 a3,3 0 0 1 -3,-3 a3,3 0 0 1 3,-3" fill="#666"/>
	<path d="M115,103 h5 a3,3 0 0 1 3,3 a3,3 0 0 1 -3,3 h-5 a3,3 0 0 1 -3,-3 a3,3 0 0 1 3,-3" fill="#666"/>
	<path d="M136,103 h4 a3,3 0 0 1 3,3 a3,3 0 0 1 -3,3 h-4 a3,3 0 0 1 -3,-3 a3,3 0 0 1 3,-3" fill="#666"/>
	<path d="M70,116 h7 a3,3 0 0 1 3,3 a3,3 0 0 1 -3,3 h-7 a3,3 0 0 1 -3,-3 a3,3 0 0 1 3,-3" fill="#666"/>
	<path d="M93,116 h47 a3,3 0 0 1 3,3 a3,3 0 0 1 -3,3 h-47 a3,3 0 0 1 -3,-3 a3,3 0 0 1 3,-3" fill="#666"/>
	<path d="M70,129 h25 a3,3 0 0 1 3,3 a3,3 0 0 1 -3,3 h-25 a3,3 0 0 1 -3,-3 a3,3 0 0 1 3,-3" fill="#666"/>
	<path d="M111,129 h10 a3,3 0 0 1 3,3 a3,3 0 0 1 -3,3 h-10 a3,3 0 0 1 -3,-3 a3,3 0 0 1 3,-3" fill="#666"/>
	<path d="M138,129 h2 a3,3 0 0 1 3,3 a3,3 0 0 1 -3,3 h-2 a3,3 0 0 1 -3,-3 a3,3 0 0 1 3,-3" fill="#666"/>
	<path d="M70,142 h3 a3,3 0 0 1 3,3 a3,3 0 0 1 -3,3 h-3 a3,3 0 0 1 -3,-3 a3,3 0 0 1 3,-3" fill="#666"/>
	<path d="M89,142 h28 a3,3 0 0 1 3,3 a3,3 0 0 1 -3,3 h-28 a3,3 0 0 1 -3,-3 a3,3 0 0 1 3,-3" fill="#666"/>
	<path d="M133,142 h7 a3,3 0 0 1 3,3 a3,3 0 0 1 -3,3 h-7 a3,3 0 0 1 -3,-3 a3,3 0 0 1 3,-3" fill="#666"/>
	<path d="M65,65 h80 a10,10 0 0 1 10,10 v75 a10,10 0 0 1 -10,10 h-80 a10,10 0 0 1 -10,-10 v-75 a10,10 0 0 1 10,-10" fill="none" stroke-width="3px" stroke="#CCC"/>
	<path d="M122,20 l70 70 h-60  a10,10 0 0 1 -10,-10" fill="#EFEFEF" style="filter: drop-shadow(-4px 4px 12px rgba(0, 0, 0, 0.3));"/>
	<path d="M20,198 h172 v40 a10,10 0 0 1 -10,10 h-152 a10,10 0 0 1 -10,-10" fill="#DDD"/>
	<text x="106" y="232" text-anchor="middle">RTF</text>
</svg>
