<svg xmlns="http://www.w3.org/2000/svg" viewBox="0 0 2880 2880">
	<path fill="#F8F8F8" d="M1551.666 384c.008 76.327.269 151.655-.101 226.98-.15 30.63-1.965 61.284-11.716 90.67-3.423 10.315-8.347 20.26-13.63 29.796-4.853 8.76-12.985 12.424-23.371 12.345-38.995-.3-77.997-.425-116.987.056-12.49.154-20.95-4.844-27.16-15.065-8.598-14.156-13.184-29.776-16.525-45.786-4.436-21.256-6.498-42.78-6.496-64.51.014-128.656-.119-257.313.048-385.968.04-30.983.836-62.055 10.434-91.915 3.533-10.99 8.487-21.629 13.792-31.912 4.782-9.267 12.912-13.285 23.85-13.178 39.66.388 79.328.44 118.986-.026 11.412-.134 19.026 4.532 24.828 13.591 8.202 12.808 12.742 27.077 16.09 41.71 4.394 19.2 6.694 38.627 6.74 58.422.137 57.93.774 115.86 1.218 174.79z"/>
	<path fill="#E3E3E3" d="M715.09 313.75c4.174-3.826 7.576-7.609 11.76-10.056 34.186-20 68.608-39.596 102.742-59.684 8.654-5.093 16.77-5.248 25.546-1.133 16.062 7.53 28.384 19.663 40.052 32.528 16.635 18.342 30.14 38.908 42.484 60.316 65.168 113.027 130.423 226.004 195.656 338.994 14.226 24.64 25.575 50.48 31.36 78.432 1.872 9.051 2.662 18.45 2.79 27.707.146 10.626-4.334 18.741-14.3 24.352-34.8 19.594-69.357 39.625-103.791 59.856-8.304 4.879-16.322 5.687-24.551 1.33-6.72-3.557-13.4-7.475-19.327-12.201-22.16-17.675-39.383-39.785-53.758-63.913-25.21-42.313-49.67-85.074-74.313-127.724-44.957-77.805-89.986-155.57-134.624-233.558-14.456-25.254-25.055-52.19-29.885-81.066-1.874-11.202-2.561-22.543 2.158-34.18z"/>
	<path fill="#BBB" d="M386 1535.674c-47.324.01-93.655.52-139.968-.164-26.523-.392-53.222-.968-79.14-7.874-9.943-2.65-19.862-5.684-29.365-9.584-6.367-2.613-12.3-6.635-17.84-10.804-5.2-3.914-8.076-9.439-8.059-16.4.104-42.325.1-84.65.002-126.976-.02-8.31 4.675-13.615 10.621-18.22 10.201-7.9 22.162-12.09 34.363-15.557 26.135-7.427 52.916-10.365 79.994-10.384 132.643-.093 265.286-.112 397.929.006 29.435.026 58.569 3.18 86.612 12.602 9.054 3.043 17.805 7.452 26.042 12.336 8.86 5.253 12.778 13.408 12.654 24.31-.447 38.988-.388 77.986-.04 116.976.1 11.153-4.109 19.106-13.177 25.144-12.706 8.46-26.983 12.969-41.576 16.377-19.49 4.553-39.237 6.942-59.378 6.983-86.225.174-172.45.78-259.674 1.229z"/>
	<path fill="#777" d="M1487.946 2759.717c-34.319 0-67.659-.488-100.972.23-14.352.31-23.245-6.048-29.759-17.703-9.407-16.833-13.69-35.276-17.125-54.003-4.043-22.044-4.319-44.347-4.335-66.631-.089-127.317-.026-254.634-.043-381.951-.005-32.158 3.04-63.888 14.164-94.315 2.832-7.746 6.775-15.206 11.087-22.26 5.035-8.24 12.633-11.64 22.751-11.534 39.991.424 79.992.452 119.981-.018 10.296-.12 17.086 4.184 22.666 11.879 7.36 10.15 11.561 21.774 14.803 33.67 5.616 20.61 9.085 41.57 9.153 63.05.42 133.247 1.159 266.494 1.257 399.74.02 27.86-.525 55.939-7.782 83.14-3.329 12.477-7.728 24.774-12.812 36.652-6.049 14.129-16.514 22.393-33.053 20.114-2.944-.406-5.992-.06-9.981-.06z"/>
	<path fill="#CCC" d="M689.997 868.074c37.83 21.83 75.129 43.126 112.133 64.925 26.272 15.476 50.427 33.79 69.354 58.013 5.233 6.698 8.922 14.708 12.658 22.436 2.762 5.712 1.701 11.449-1.599 17.119-21.27 36.544-42.388 73.176-63.406 109.865-3.06 5.34-7.38 8.19-13.152 9.744-12.368 3.327-24.528 1.267-36.569-1.337-28.238-6.107-54.413-17.547-79.334-31.932-117.359-67.744-234.755-135.424-351.957-203.44-24.894-14.446-47.621-32.026-65.929-54.482-5.996-7.355-10.451-16.113-14.734-24.669-3.134-6.26-1.973-12.785 1.675-19.05 20.941-35.965 41.798-71.981 62.451-108.112 4.77-8.344 12.28-10.717 20.86-11.352 14.486-1.073 28.489 1.679 42.352 5.624 22.223 6.325 43.234 15.553 63.188 27.029 80.523 46.309 160.913 92.847 242.01 139.619z"/>
	<path fill="#383838" d="M2137.989 1345.973c15.456-11.378 32.862-15.923 50.409-19.823 25.451-5.657 51.363-6.31 77.32-6.299 127.962.055 255.925.09 383.888.007 27.399-.018 54.475 2.668 80.735 10.442 11.022 3.263 21.64 8.433 31.794 13.932 9.732 5.271 14.005 14.115 13.892 25.69-.374 38.319-.22 76.644-.091 114.965.038 11.58-4.037 20.366-14.184 26.7-15.86 9.903-33.489 14.472-51.41 18.218-15.974 3.339-32.187 4.008-48.524 4.475-129.878 3.71-259.778 1.152-389.66 1.167-31.936.004-64.493.418-95.786-9.333-12.083-3.766-24.253-7.19-34.88-14.384-9.085-6.152-14.012-13.889-13.83-25.777.61-39.646.408-79.309.098-118.961-.068-8.788 2.383-15.623 10.229-21.02z"/>
	<path fill="#A4A4A4" d="M527.806 1831.821c57.776-33.24 114.758-66.397 172.092-98.934 23.548-13.363 48.673-23.284 75.576-27.672 8.142-1.328 16.58-1.427 24.856-1.18 8.851.264 15.388 4.496 20.013 12.638 20.389 35.898 41.06 71.637 61.954 107.244 3.753 6.395 4.888 12.672 1.624 18.91-4.44 8.486-9.014 17.168-15.069 24.495-18.006 21.788-40.072 39.114-64.392 53.226-118.939 69.015-238.019 137.788-357.171 206.435-26.99 15.55-55.608 27.152-86.677 31.788-3.936.588-7.938.857-11.92 1.008-13.405.509-23.17-4.252-30.121-16.779-18.897-34.059-38.537-67.715-58.436-101.203-5.67-9.542-5.808-18.644-.314-27.245 6.586-10.31 13.777-20.505 22.211-29.308 20.195-21.076 44.295-37.175 69.523-51.69 58.588-33.704 117.073-67.588 176.25-101.733z"/>
	<path fill="#888" d="M1009.224 2395.236c-26.879 46.456-53.109 92.445-79.973 138.06-15.636 26.552-34.316 50.847-59.194 69.579-6.017 4.53-13.097 7.771-19.965 11.017-6.985 3.3-13.549.98-19.882-2.695-24.48-14.205-49.027-28.292-73.543-42.435-10.383-5.989-20.548-12.394-31.185-17.89-9.46-4.888-13.154-12.562-13.709-22.589-.765-13.823 1.722-27.165 5.424-40.382 7.326-26.156 18.835-50.494 32.342-73.914 65.875-114.22 131.742-228.444 197.864-342.52 16.125-27.82 35.47-53.205 61.062-73.227 3.653-2.857 7.647-5.33 11.67-7.654 10.69-6.175 20.681-6.03 31.815.656 33.394 20.05 67.168 39.493 101.199 58.446 10.122 5.638 13.988 13.512 14.549 24.154.656 12.463-1.837 24.492-4.953 36.439-7.723 29.605-21.53 56.466-36.782 82.762-38.924 67.109-77.588 134.37-116.739 202.193z"/>
	<path fill="#666" d="M2170.882 2491.294c1.809 11.617 3.99 22.41 4.712 33.302.815 12.302-4.613 21.172-15.918 27.498-34.3 19.194-68.335 38.881-102.118 58.972-9.237 5.493-17.585 5.107-26.413.685-15.437-7.732-27.83-19.23-39.256-31.979-22.648-25.272-39.135-54.606-55.926-83.781-33.399-58.033-66.989-115.955-100.453-173.95-28.465-49.333-57.136-98.55-85.18-148.122-14-24.75-24.513-51.049-29.065-79.333-1.155-7.177-1.318-14.574-1.285-21.867.047-10.543 5.032-17.827 14.504-23.151 29.326-16.484 58.295-33.603 87.41-50.461 5.478-3.172 11.202-5.968 16.441-9.49 8.15-5.481 16.381-4.858 24.663-1.005 16.361 7.613 28.952 19.972 40.804 33.172 19.95 22.218 35.024 47.72 49.81 73.47 36.162 62.975 72.6 125.792 108.89 188.694 28.297 49.047 56.778 97.989 84.678 147.26 10.52 18.58 18.26 38.495 23.702 60.086z"/>
	<path fill="#555" d="M2334.555 1817.44c42.726 24.682 84.838 48.966 126.891 73.35 32.544 18.87 65.373 37.287 97.398 57.005 22.152 13.64 42.303 30.19 58.453 50.903 4.66 5.977 8.217 12.885 11.768 19.634 3.876 7.365 2.872 14.686-1.308 21.822-12.62 21.548-25.103 43.177-37.654 64.765-7.865 13.53-16.463 26.693-23.408 40.678-5.326 10.724-14.081 13.913-24.368 13.993-8.886.07-17.924-1.048-26.655-2.823-29.347-5.968-56.227-18.365-82.027-33.158-42.167-24.179-84.185-48.62-126.261-72.958-67.152-38.843-134.24-77.799-201.488-116.474-19.361-11.135-38.645-22.312-56.066-36.385-15.067-12.172-28.98-25.401-39.923-41.614-8.64-12.8-10.354-24.814-1.775-38.887 18.54-30.411 35.958-61.506 53.83-92.324 1.504-2.592 3.197-5.101 4.435-7.816 4.271-9.364 12.101-12.668 21.71-13.29 15.86-1.028 31.145 1.864 46.195 6.52 25.608 7.922 49.32 19.894 72.418 33.327 42.312 24.607 84.787 48.932 127.835 73.731z"/>
	<path fill="#222" d="M2193.947 869.987c15.857-9.229 31.022-18.197 46.266-27.03 25.312-14.668 50.666-29.263 76.019-43.86a53471.712 53471.712 0 0 1 70.046-40.25c20.183-11.58 40.181-23.503 60.628-34.599 24.344-13.21 49.984-23.358 77.474-27.735 8.121-1.293 16.659-.814 24.92-.119 6.05.51 11.262 3.586 14.588 9.292 8.368 14.357 16.993 28.565 25.388 42.907 11.084 18.934 22.22 37.84 33.015 56.94 11.933 21.115 14.014 23.896-2.043 46.855-12.896 18.44-29.85 33.137-48.445 45.518-19.89 13.243-40.486 25.452-61.036 37.67-23.142 13.76-46.57 27.037-69.887 40.502-23.895 13.8-47.814 27.557-71.707 41.36-26.482 15.3-52.946 30.63-79.417 45.95-19.562 11.32-39.01 22.843-58.714 33.91-21.452 12.046-42.632 24.756-64.87 35.172-22.233 10.414-45.737 17.908-70.648 19.492-14.532.924-24.634-5.137-31.618-17.998-9.833-18.108-20.443-35.793-30.74-53.648-9.3-16.127-18.509-32.308-27.996-48.324-3.489-5.89-3.98-11.77-2.138-18.18 3.008-10.47 8.501-19.703 15.906-27.338 10.164-10.48 20.906-20.5 32.151-29.812 23.936-19.819 51.497-34.05 78.316-49.398 21.352-12.22 42.594-24.63 64.542-37.277z"/>
	<path fill="#111" d="M2054.66 584.626c-12.632 21.934-24.895 43.23-37.213 64.494-10.322 17.817-20.726 35.586-31.063 53.395-13.67 23.55-27.443 47.043-40.926 70.7-15.53 27.248-32.92 53.124-56.256 74.343-9.978 9.072-20.299 18.041-34.453 20.791-4.978.967-9.08.388-13.217-1.969-36.361-20.722-72.708-41.471-109.074-62.185-9.166-5.22-11.786-13.847-12.455-23.525-1.123-16.238 3.059-31.679 7.914-46.827 6.398-19.962 14.844-39.045 25.576-57.202 15.04-25.447 29.115-51.462 43.813-77.113 13.868-24.203 28.076-48.21 42.01-72.375 16.094-27.911 31.965-55.951 48.095-83.841 13.133-22.707 26.518-45.268 39.768-67.906 11.743-20.062 22.955-40.457 35.363-60.097 7.758-12.278 17.492-23.29 25.988-35.123 9.46-13.174 21.783-23.184 34.864-32.343 3.746-2.622 8.275-4.151 12.498-6.063 6.226-2.819 12.178-2.191 18.128 1.18 17.922 10.155 36.04 19.968 53.886 30.252 17.26 9.945 33.961 20.902 51.504 30.301 13.971 7.486 17.112 18.042 15.505 35.079-1.446 15.332-5.45 29.908-10.247 44.439-6.924 20.981-17.114 40.333-28.15 59.33-11.678 20.1-23.24 40.266-34.874 60.39-11.302 19.553-22.655 39.074-33.932 58.64-4.313 7.484-8.476 15.054-13.052 23.235z"/>
</svg>
